<svg width="22" height="44" viewBox="0 0 22 44" fill="none" xmlns="http://www.w3.org/2000/svg">
<g style="mix-blend-mode:color-dodge" opacity="0.8">
<path d="M11.0289 41.1847V37.2134C10.3052 36.8091 9.49535 36.3483 8.59906 35.8313L7.39317 35.1355V39.0872L3.55015 36.8701V32.9185L0 30.8704V1.90388L3.55015 3.95191V0L7.39317 2.21708V6.16877L10.0984 7.72956C10.4201 7.91504 10.7303 8.10051 11.0289 8.28599V4.31454L14.872 6.53162V10.839C15.7475 11.5616 16.5291 12.3908 17.1985 13.3074C17.9989 14.3991 18.6536 15.5904 19.1458 16.8512C19.6452 18.0693 19.9083 19.3711 19.9213 20.6874C19.9893 21.8279 19.6503 22.9556 18.9645 23.8699C18.653 24.2459 18.2531 24.5388 17.8006 24.7225C17.348 24.9063 16.8568 24.975 16.3711 24.9226C17.845 26.2381 19.0505 27.8258 19.9213 29.5985C20.7152 31.1768 21.1395 32.915 21.1619 34.6813C21.1957 35.8588 20.9195 37.0246 20.3607 38.0618C20.1404 38.4907 19.83 38.8669 19.4507 39.1648C19.0715 39.4627 18.6324 39.6753 18.1633 39.788C17.0372 39.9629 15.8845 39.7754 14.872 39.2526V43.4017L11.0289 41.1847ZM5.10077 9.66776V16.3658L8.44406 18.2944C10.4314 19.4412 11.6664 20.1208 12.1491 20.3332C12.4566 20.5178 12.8032 20.6275 13.1609 20.6537C13.5186 20.6798 13.8774 20.6216 14.2085 20.4838C14.4867 20.2745 14.7032 19.994 14.8352 19.6719C14.9671 19.3498 15.0095 18.9981 14.958 18.6539C14.9589 17.7614 14.7367 16.8827 14.3117 16.0977C13.8453 15.2495 13.1874 14.5216 12.3903 13.9718C11.8848 13.6143 10.4315 12.7429 8.03033 11.3577L5.10077 9.66776ZM5.10077 21.187V28.9324L9.82288 31.6566C10.945 32.35 12.1137 32.9648 13.3208 33.4969C13.6119 33.6397 13.9344 33.7066 14.2583 33.6914C14.5822 33.6762 14.897 33.5793 15.1734 33.4097C15.4463 33.1494 15.6535 32.828 15.7778 32.4721C15.9022 32.1161 15.94 31.7358 15.8885 31.3623C15.8876 30.489 15.6997 29.626 15.3374 28.8313C14.9526 27.9894 14.4117 27.2281 13.7431 26.5876C12.3435 25.4266 10.8277 24.413 9.21965 23.5631L5.10077 21.187Z" fill="#7C1DC9"/>
</g>
</svg>
