<svg width="22" height="37" viewBox="0 0 22 37" fill="none" xmlns="http://www.w3.org/2000/svg">
<g style="mix-blend-mode:color-dodge" opacity="0.8">
<path d="M21.5231 6.92807L20.4088 12.2839C19.2788 10.3806 17.662 8.81242 15.7245 7.74034C13.6719 6.55623 12.0097 6.44204 10.7379 7.39779C9.92924 8.08901 9.38801 9.04109 9.20804 10.0891L19.5966 16.0822L18.9929 19.0901L8.83095 13.2275C8.8182 13.553 8.81193 13.9755 8.81224 14.4947C8.81224 15.0004 8.82468 15.5347 8.84955 16.0977L18.4634 21.6438L17.8588 24.6522L9.24637 19.6836C9.50508 21.24 9.9952 22.7491 10.7005 24.1607C11.7796 26.395 13.4858 28.2672 15.6112 29.5494C18.0291 30.9442 19.9559 31.2038 21.3913 30.3282V36.9554C19.353 36.8233 17.3826 36.1712 15.6684 35.0615C11.8246 32.7669 8.68778 29.4587 6.60202 25.4999C5.00541 22.6505 3.9248 19.5417 3.41013 16.3168L0.61438 14.7037L1.21873 11.6953L3.06957 12.7632C3.05678 12.4092 3.05064 12.0372 3.05096 11.6473C3.05096 10.9835 3.0634 10.406 3.08839 9.91475L0.61438 8.48739L1.21873 5.48009L3.46627 6.77673C3.60278 5.71232 3.95253 4.6863 4.4945 3.75985C5.03646 2.83341 5.75963 2.02555 6.62084 1.38442C9.00037 -0.158642 12.1294 0.188073 16.008 2.42458C18.0823 3.61164 19.9458 5.13332 21.5231 6.92807Z" fill="#7C1DC9"/>
</g>
</svg>
