<svg width="40" height="40" viewBox="0 0 40 40" fill="none" xmlns="http://www.w3.org/2000/svg">
<path d="M0.821899 40H14.3835C20.8143 40 26.0274 34.7869 26.0274 28.3562H12.4657C6.03502 28.3562 0.821899 33.5693 0.821899 40Z" fill="#F22BB2"/>
<path d="M1.42859 11.6438V28.7671C7.8593 28.7671 13.0724 23.554 13.0724 17.1233V0C6.64171 0 1.42859 5.21312 1.42859 11.6438Z" fill="#5277F7"/>
<path d="M39.1781 0H25.6164C19.1857 0 13.9726 5.21312 13.9726 11.6438H27.5342C33.965 11.6438 39.1781 6.43071 39.1781 0Z" fill="#FE9A22"/>
<path d="M39.1781 27.6713V10.548C32.7474 10.548 27.5342 15.7611 27.5342 22.1918V39.3151C33.965 39.3151 39.1781 34.102 39.1781 27.6713Z" fill="#2EC5CE"/>
</svg>
