<svg width="88" height="88" viewBox="0 0 88 88" fill="none" xmlns="http://www.w3.org/2000/svg">
<path d="M88 44C88 53.1126 85.2297 61.5783 80.4855 68.6008C72.5783 80.3048 59.1877 74.5993 44 74.5993C29.0415 74.5993 15.8266 80.5356 7.87652 69.1285C2.91156 62.0042 0 53.3421 0 44C0 19.6995 19.6995 0 44 0C68.3005 0 88 19.6995 88 44Z" fill="#35A5FF"/>
<path d="M80.1229 9.04227V69.1281C79.1293 70.5539 78.0534 71.9183 76.902 73.214C68.8426 82.2847 57.0884 77.6854 43.9999 77.6854C31.0277 77.6854 19.3661 82.3858 11.3136 73.4548C10.0807 72.0876 8.93245 70.6424 7.87697 69.1279V9.04227C7.87697 5.45523 10.7851 2.54883 14.3704 2.54883H73.6295C77.2148 2.54883 80.1229 5.45523 80.1229 9.04227Z" fill="#B8BEDE"/>
<path d="M40.1134 56.6381C53.2132 56.6381 63.8326 46.0186 63.8326 32.9188C63.8326 19.819 53.2132 9.19952 40.1134 9.19952C27.0136 9.19952 16.3941 19.819 16.3941 32.9188C16.3941 46.0186 27.0136 56.6381 40.1134 56.6381Z" fill="#A8ACD3"/>
<path d="M76.6854 18.8872V73.4541C75.6026 74.6555 74.4562 75.7968 73.2479 76.871C65.4757 83.7941 55.2285 77.6855 43.9999 77.6855C32.7713 77.6855 22.5242 83.7941 14.752 76.871C13.5437 75.7968 12.3973 74.6555 11.3145 73.4541V18.8872C11.3145 17.2029 12.686 15.833 14.3704 15.833H73.6295C75.3138 15.833 76.6854 17.2029 76.6854 18.8872Z" fill="#D6D8E8"/>
<path d="M56.8854 49.6907C47.6231 58.953 32.6046 58.953 23.3406 49.6907C14.0782 40.4283 14.0782 25.4099 23.3406 16.1458C23.4454 16.041 23.552 15.9361 23.6603 15.833H56.5657C56.674 15.9361 56.7806 16.041 56.8854 16.1458C66.1478 25.4099 66.1478 40.4283 56.8854 49.6907Z" fill="#B8BEDE"/>
<path d="M73.2479 24.315V76.871C65.4757 83.7941 55.2285 87.9999 43.9999 87.9999C32.7713 87.9999 22.5242 83.7941 14.752 76.871V24.315C14.752 21.5289 17.0104 19.2705 19.7965 19.2705H68.2034C70.9895 19.2705 73.2479 21.5289 73.2479 24.315Z" fill="#5E54AC"/>
<path d="M56.8855 49.6907C47.6231 58.953 32.6047 58.953 23.3406 49.6907C15.0597 41.4097 14.1814 28.5277 20.7109 19.2705H59.5169C66.0447 28.5277 65.1664 41.4097 56.8855 49.6907Z" fill="#453D81"/>
<path d="M14.5159 12.3803C16.2836 12.3803 17.7165 10.9473 17.7165 9.1796C17.7165 7.41192 16.2836 5.97894 14.5159 5.97894C12.7482 5.97894 11.3152 7.41192 11.3152 9.1796C11.3152 10.9473 12.7482 12.3803 14.5159 12.3803Z" fill="#A8ACD3"/>
<path d="M23.1693 12.3803C24.937 12.3803 26.37 10.9473 26.37 9.1796C26.37 7.41192 24.937 5.97894 23.1693 5.97894C21.4017 5.97894 19.9687 7.41192 19.9687 9.1796C19.9687 10.9473 21.4017 12.3803 23.1693 12.3803Z" fill="#A8ACD3"/>
<path d="M31.8226 12.6191C33.5903 12.6191 35.0233 11.1861 35.0233 9.41843C35.0233 7.65076 33.5903 6.21777 31.8226 6.21777C30.0549 6.21777 28.6219 7.65076 28.6219 9.41843C28.6219 11.1861 30.0549 12.6191 31.8226 12.6191Z" fill="#A8ACD3"/>
<path d="M43.9999 56.6381C57.0997 56.6381 67.7192 46.0186 67.7192 32.9188C67.7192 19.819 57.0997 9.19952 43.9999 9.19952C30.9002 9.19952 20.2807 19.819 20.2807 32.9188C20.2807 46.0186 30.9002 56.6381 43.9999 56.6381Z" fill="#EFC64C"/>
<path d="M61.8664 48.5199C61.5182 48.9206 61.1531 49.3106 60.7726 49.6911C51.5101 58.9536 36.4921 58.9552 27.2279 49.6911C17.9654 40.4286 17.9654 25.4091 27.2279 16.1464C27.6084 15.7659 27.9984 15.4007 28.3991 15.0526C20.2443 24.3679 20.6093 38.5457 29.4913 47.4277C38.3749 56.3112 52.5511 56.6747 61.8664 48.5199Z" fill="#E3A12F"/>
<path d="M43.9999 50.1683C53.5265 50.1683 61.2494 42.4454 61.2494 32.9187C61.2494 23.3921 53.5265 15.6692 43.9999 15.6692C34.4732 15.6692 26.7503 23.3921 26.7503 32.9187C26.7503 42.4454 34.4732 50.1683 43.9999 50.1683Z" fill="#E3A12F"/>
<path d="M56.1973 20.7217C62.9334 27.4579 62.9334 38.3805 56.1973 45.1166C55.8864 45.4276 55.566 45.7232 55.2381 46.0078C61.0676 39.2315 60.7706 28.9987 54.3454 22.5735C47.9202 16.1483 37.6876 15.8513 30.9111 21.6808C31.1957 21.3529 31.4913 21.0325 31.8022 20.7216C38.5385 13.9856 49.461 13.9856 56.1973 20.7217Z" fill="#DE8635"/>
<path d="M42.6216 31.1836C40.9991 31.9586 39.175 32.9288 37.8665 32.9288C37.6901 32.9288 37.1496 32.6916 36.857 32.2631C36.7017 32.0357 36.2297 31.2288 36.6773 30.3954C37.5944 28.6885 39.1102 28.5015 39.28 28.4862C39.852 28.4336 40.3516 28.1668 40.7117 27.7744L42.4255 26.0607L41.4585 25.0937L41.1305 25.4216C40.7679 24.5456 39.8669 23.9679 38.8731 24.0592C37.9321 24.1456 36.834 24.4739 35.777 25.1061L35.4116 24.7407L33.9623 23.0463L32.268 24.7407C31.3998 25.6088 31.4 27.0161 32.268 27.8843L32.7327 28.349C31.6797 30.3606 31.8502 32.8147 33.1856 34.7703C34.4317 36.5951 36.4296 37.5808 38.3998 37.3426C40.3322 37.1088 42.4918 36.1724 44.5378 35.1951C46.0991 34.4494 47.0154 35.2969 47.4225 35.8687C48.1071 36.83 48.3041 38.412 47.1185 39.6132C46.3335 40.4105 44.5124 40.3672 44.5124 40.3672L42.7891 42.0904C42.2551 42.6035 41.9877 43.37 42.1505 44.1481C42.4017 45.3497 43.5794 46.1202 44.781 45.8693C46.5015 45.5095 47.587 45.0285 48.624 44.2399L49.0349 44.6509C49.903 45.519 51.3104 45.519 52.1785 44.6509L53.8728 42.9565L51.6027 40.9316C52.9593 38.3222 52.4791 35.3057 51.0434 33.2897C49.0956 30.5543 45.711 29.7079 42.6216 31.1836Z" fill="#DE8635"/>
<path d="M44.3159 29.4893C42.6934 30.2643 40.8692 31.2345 39.5608 31.2345C39.3844 31.2345 38.8439 30.9973 38.5513 30.5688C38.396 30.3414 37.924 29.5346 38.3716 28.7011C39.2887 26.9942 40.8045 26.8072 40.9743 26.7919C42.1966 26.6795 43.0967 25.5973 42.9843 24.3748C42.8719 23.1522 41.7898 22.2523 40.5673 22.3647C39.6262 22.4512 38.5281 22.7793 37.4711 23.4116L37.1057 23.0462C36.2377 22.1782 34.8302 22.178 33.9621 23.0462C33.094 23.9143 33.094 25.3216 33.9621 26.1898L34.4269 26.6545C33.3738 28.6662 33.5444 31.1202 34.8799 33.0758C36.126 34.9006 38.1239 35.8863 40.0939 35.6481C42.0263 35.4143 44.1859 34.4779 46.2319 33.5007C47.7932 32.7551 48.7093 33.6024 49.1165 34.1742C49.8011 35.1355 49.9979 36.7175 48.8125 37.9187C47.5614 39.1894 47.1403 39.4941 45.5654 39.8229C44.3635 40.0742 43.593 41.2519 43.8444 42.4536C44.0957 43.6552 45.2734 44.4257 46.475 44.1746C48.1954 43.8149 49.281 43.3338 50.3177 42.5454L50.7289 42.9565C51.597 43.8247 53.0043 43.8247 53.8725 42.9565C54.7406 42.0884 54.7406 40.6811 53.8725 39.8129L53.2967 39.2372C54.6533 36.6278 54.1731 33.611 52.7376 31.5953C50.7897 28.8599 47.4053 28.0136 44.3159 29.4893Z" fill="#EFC64C"/>
<path d="M67.2444 67.8406C67.2444 68.8821 66.9007 69.8429 66.3215 70.6164C66.1874 70.7934 66.043 70.9601 65.8884 71.1148C65.0513 71.9518 63.8929 72.4709 62.6141 72.4709H25.197C23.681 72.4709 22.3352 71.7421 21.4896 70.6164C20.9104 69.8429 20.5666 68.8821 20.5666 67.8406C20.5666 66.5618 21.0857 65.4051 21.9227 64.5681C22.7598 63.7293 23.9182 63.212 25.197 63.212H62.6141C65.1716 63.212 67.2444 65.285 67.2444 67.8406Z" fill="#2E4F5F"/>
<path d="M66.3214 70.6165C66.1873 70.7935 66.0429 70.9603 65.8883 71.1149C65.0512 71.952 63.8928 72.471 62.614 72.471H25.1969C23.6809 72.471 22.3351 71.7423 21.4895 70.6165C21.6218 70.4395 21.7662 70.2728 21.9226 70.1163C22.7597 69.2776 23.9181 68.7603 25.1969 68.7603H62.614C64.1317 68.7601 65.4775 69.4888 66.3214 70.6165Z" fill="#1F3645"/>
</svg>
