<svg width="88" height="88" viewBox="0 0 88 88" fill="none" xmlns="http://www.w3.org/2000/svg">
<path d="M44 88C67.2564 88 86.1094 69.147 86.1094 45.8906C86.1094 22.6343 67.2564 3.78125 44 3.78125C20.7436 3.78125 1.89062 22.6343 1.89062 45.8906C1.89062 69.147 20.7436 88 44 88Z" fill="#35A5FF"/>
<path d="M17.3109 72.47C16.8382 72.47 16.4515 72.0833 16.4515 71.6107V12.2455H10.7654C10.2927 12.2455 9.90601 12.6323 9.90601 13.1049V70.605C12.2033 73.7687 14.9278 76.6019 17.9986 79.0157H65.5045C65.9771 79.0157 66.3638 78.629 66.3638 78.1563V72.4702L17.3109 72.47Z" fill="#FFAF10"/>
<path d="M13.1716 13.1049C13.1716 12.6323 13.5584 12.2455 14.031 12.2455H10.7654C10.2927 12.2455 9.90601 12.6323 9.90601 13.1049V70.605C10.9144 71.9938 12.0055 73.3188 13.1716 74.5728V13.1049Z" fill="#EF9614"/>
<path d="M22.9828 66.2829C22.5101 66.2829 22.1234 65.8962 22.1234 65.4236V6.18719H16.8236C16.351 6.18719 15.9643 6.57391 15.9643 7.04657V72.0978C15.9643 72.5706 16.351 72.9572 16.8236 72.9572H71.5631C72.0357 72.9572 72.4224 72.5706 72.4224 72.0978V66.2829H22.9828Z" fill="#FF9518"/>
<path d="M19.058 72.0978V7.04657C19.058 6.57391 19.4447 6.18719 19.9174 6.18719H16.8236C16.351 6.18719 15.9643 6.57391 15.9643 7.04657V72.0978C15.9643 72.5706 16.351 72.9572 16.8236 72.9572H19.9174C19.4447 72.9572 19.058 72.5706 19.058 72.0978Z" fill="#EF8318"/>
<path d="M78.094 65.9106C78.094 66.3833 77.7073 66.77 77.2346 66.77H22.4955C22.0229 66.77 21.6361 66.3833 21.6361 65.9106V0.859375C21.6361 0.386719 22.0229 0 22.4955 0H77.2346C77.7073 0 78.094 0.386719 78.094 0.859375V65.9106Z" fill="#D9EAFC"/>
<path d="M25.0468 65.9106V0.859375C25.0468 0.386719 25.4336 0 25.9062 0H22.4954C22.0227 0 21.636 0.386719 21.636 0.859375V65.9106C21.636 66.3833 22.0227 66.77 22.4954 66.77H25.9062C25.4336 66.77 25.0468 66.3833 25.0468 65.9106Z" fill="#C3DDF4"/>
<path d="M71.3436 8.73022H59.3878C58.6757 8.73022 58.0987 8.15324 58.0987 7.44116C58.0987 6.72926 58.6757 6.1521 59.3878 6.1521H71.3436C72.0557 6.1521 72.6326 6.72926 72.6326 7.44116C72.6326 8.15324 72.0555 8.73022 71.3436 8.73022Z" fill="#DB722C"/>
<path d="M71.3436 13.1129H59.3878C58.6757 13.1129 58.0987 12.5357 58.0987 11.8238C58.0987 11.1117 58.6757 10.5347 59.3878 10.5347H71.3436C72.0557 10.5347 72.6326 11.1117 72.6326 11.8238C72.6326 12.5357 72.0555 13.1129 71.3436 13.1129Z" fill="#DB722C"/>
<path d="M71.3436 17.4953H59.3878C58.6757 17.4953 58.0987 16.9181 58.0987 16.2062C58.0987 15.4943 58.6757 14.9172 59.3878 14.9172H71.3436C72.0557 14.9172 72.6326 15.4943 72.6326 16.2062C72.6326 16.9183 72.0555 17.4953 71.3436 17.4953Z" fill="#DB722C"/>
<path d="M71.3436 21.8779H59.3878C58.6757 21.8779 58.0987 21.3008 58.0987 20.5889C58.0987 19.8768 58.6757 19.2998 59.3878 19.2998H71.3436C72.0557 19.2998 72.6326 19.8768 72.6326 20.5889C72.6326 21.3008 72.0555 21.8779 71.3436 21.8779Z" fill="#DB722C"/>
<path d="M49.0526 52.4702H28.9159C28.2038 52.4702 27.6269 51.893 27.6269 51.1811C27.6269 50.4692 28.2038 49.892 28.9159 49.892H49.0525C49.7645 49.892 50.3415 50.4692 50.3415 51.1811C50.3417 51.893 49.7645 52.4702 49.0526 52.4702Z" fill="#52BBEF"/>
<path d="M49.0526 56.8526H28.9159C28.2038 56.8526 27.6269 56.2756 27.6269 55.5635C27.6269 54.8516 28.2038 54.2745 28.9159 54.2745H49.0525C49.7645 54.2745 50.3415 54.8516 50.3415 55.5635C50.3417 56.2756 49.7645 56.8526 49.0526 56.8526Z" fill="#52BBEF"/>
<path d="M49.0526 61.2352H28.9159C28.2038 61.2352 27.6269 60.6583 27.6269 59.9462C27.6269 59.2343 28.2038 58.6571 28.9159 58.6571H49.0525C49.7645 58.6571 50.3415 59.2343 50.3415 59.9462C50.3417 60.6581 49.7645 61.2352 49.0526 61.2352Z" fill="#52BBEF"/>
<path d="M71.3436 29.5261H52.9991C52.287 29.5261 51.71 28.9489 51.71 28.237C51.71 27.5251 52.287 26.9479 52.9991 26.9479H71.3436C72.0557 26.9479 72.6327 27.5251 72.6327 28.237C72.6327 28.9489 72.0555 29.5261 71.3436 29.5261Z" fill="#FE3745"/>
<path d="M71.3436 33.9087H52.9991C52.287 33.9087 51.71 33.3315 51.71 32.6196C51.71 31.9077 52.287 31.3306 52.9991 31.3306H71.3436C72.0557 31.3306 72.6327 31.9077 72.6327 32.6196C72.6327 33.3315 72.0555 33.9087 71.3436 33.9087Z" fill="#FE3745"/>
<path d="M71.3436 38.2912H52.9991C52.287 38.2912 51.71 37.7139 51.71 37.0021C51.71 36.2901 52.287 35.7131 52.9991 35.7131H71.3436C72.0557 35.7131 72.6327 36.2901 72.6327 37.0021C72.6327 37.7139 72.0555 38.2912 71.3436 38.2912Z" fill="#FE3745"/>
<path d="M71.3436 42.6736H52.9991C52.287 42.6736 51.71 42.0965 51.71 41.3846C51.71 40.6727 52.287 40.0955 52.9991 40.0955H71.3436C72.0557 40.0955 72.6327 40.6727 72.6327 41.3846C72.6327 42.0965 72.0555 42.6736 71.3436 42.6736Z" fill="#FE3745"/>
<path d="M26.6011 37.0829H31.6271C31.6271 34.3071 33.8771 32.0568 36.6529 32.0568V27.0311C31.1018 27.0311 26.6011 31.5313 26.6011 37.0829Z" fill="#FE3745"/>
<path d="M39.202 24.4822V29.508C41.9777 29.508 44.2278 31.758 44.2278 34.5338H49.2539C49.2539 28.9822 44.7533 24.4822 39.202 24.4822Z" fill="#91E0E8"/>
<path d="M41.6787 37.0829C41.6787 39.8583 39.4288 42.1087 36.653 42.1087C33.8773 42.1087 31.6272 39.8583 31.6272 37.0829H26.6011C26.6011 42.6341 31.1018 47.1347 36.6529 47.1347C42.2043 47.1347 46.7048 42.6341 46.7048 37.0829H41.6787Z" fill="#FFAF10"/>
<path d="M32.3742 19.787V7.78424C32.3742 7.50065 32.1422 7.26862 31.8586 7.26862H28.7336C28.45 7.26862 28.2179 7.50065 28.2179 7.78424V19.787H32.3742Z" fill="#FFAF10"/>
<path d="M39.0974 19.787V11.0499C39.0974 10.7663 38.8654 10.5342 38.5818 10.5342H35.457C35.1734 10.5342 34.9413 10.7663 34.9413 11.0499V19.787H39.0974Z" fill="#FE3745"/>
<path d="M45.8205 19.787V15.003C45.8205 14.7194 45.5884 14.4874 45.3048 14.4874H42.18C41.8964 14.4874 41.6644 14.7194 41.6644 15.003V19.787H45.8205Z" fill="#37C47A"/>
<path d="M52.5437 19.787V7.78424C52.5437 7.50065 52.3117 7.26862 52.0281 7.26862H48.9031C48.6195 7.26862 48.3875 7.50065 48.3875 7.78424V19.787H52.5437Z" fill="#91E0E8"/>
<path d="M65.2424 54.9498C65.2424 54.6655 65.4737 54.4342 65.758 54.4342H68.0888V48.6661C68.0888 48.1934 67.7021 47.8067 67.2294 47.8067H59.4742C59.0016 47.8067 58.6149 48.1934 58.6149 48.6661V56.4212C58.6149 56.8939 59.0016 57.2806 59.4742 57.2806H65.2424V54.9498Z" fill="#FE3745"/>
<path d="M71.3436 59.676C71.3436 60.1487 70.9569 60.5354 70.4842 60.5354H65.758C65.2853 60.5354 64.8986 60.1487 64.8986 59.676V54.9498C64.8986 54.4772 65.2853 54.0905 65.758 54.0905H70.4842C70.9569 54.0905 71.3436 54.4772 71.3436 54.9498V59.676Z" fill="#37C47A"/>
<path d="M53.4323 21.878H27.3295C26.6174 21.878 26.0404 21.3008 26.0404 20.5889C26.0404 19.8769 26.6174 19.2999 27.3295 19.2999H53.4323C54.1444 19.2999 54.7214 19.8769 54.7214 20.5889C54.7214 21.3008 54.1444 21.878 53.4323 21.878Z" fill="#52BBEF"/>
</svg>
