<svg width="88" height="88" viewBox="0 0 88 88" fill="none" xmlns="http://www.w3.org/2000/svg">
<g clip-path="url(#clip0_601_1695)">
<path d="M88 44C88 50.5084 86.5867 56.6865 84.0509 62.2449C79.7158 71.7471 72.0989 79.4351 62.6505 83.8643C60.9391 84.6652 59.1666 85.3601 57.3418 85.9382C55.2894 86.5941 53.1718 87.0983 50.9985 87.4448C50.9898 87.4468 50.9791 87.4488 50.9697 87.4488C49.9035 87.6193 48.8273 87.7502 47.7376 87.8422C47.5053 87.8617 47.2723 87.8798 47.0387 87.8959C46.7097 87.9174 46.3794 87.9369 46.0471 87.9517C45.3683 87.9839 44.6862 88 44 88C43.2957 88 42.5975 87.9839 41.9026 87.9496C41.5884 87.9355 41.2735 87.9174 40.9593 87.8939C40.7243 87.8778 40.4907 87.8617 40.257 87.8422C39.1418 87.7489 38.0374 87.6119 36.9478 87.436C36.4268 87.3514 35.9078 87.2601 35.3942 87.1574C33.1652 86.7156 30.9993 86.1074 28.9072 85.342C27.6947 84.9002 26.5077 84.4061 25.3475 83.8622C24.9528 83.6769 24.5593 83.4849 24.1693 83.2855C23.1675 82.7793 22.1887 82.2348 21.2333 81.6547C16.447 78.7563 12.2589 74.9704 8.89319 70.5258C6.87299 67.8571 5.15088 64.9513 3.77521 61.8549C1.34882 56.3992 0 50.3574 0 44C0 19.6992 19.6992 0 44 0C68.3008 0 88 19.6992 88 44Z" fill="#35A5FF"/>
<path d="M35.3942 57.0994V87.1574C33.1652 86.7156 30.9993 86.1074 28.9072 85.342C27.6947 84.9002 26.5077 84.4061 25.3475 83.8622C24.9528 83.6769 24.5593 83.4849 24.1693 83.2855C23.1675 82.7793 22.1887 82.2348 21.2333 81.6547C16.447 78.7563 12.2589 74.9704 8.89319 70.5258C6.87299 67.8571 5.15088 64.9513 3.77521 61.8549V57.0994C3.77521 51.5826 7.52155 46.94 12.6093 45.5804C12.796 45.5301 12.9826 45.4831 13.1733 45.4442C13.6775 45.3327 14.1965 45.2568 14.7249 45.2139C15.0464 45.189 15.3714 45.1743 15.6997 45.1743H23.467C24.3344 45.1743 25.1804 45.2662 25.9961 45.4442C26.0424 45.4529 26.0894 45.4636 26.1357 45.4744C26.2727 45.5052 26.411 45.5388 26.5453 45.5751C26.5493 45.5771 26.5527 45.5771 26.556 45.5784C27.8995 45.9376 29.1476 46.5251 30.2594 47.2972C33.3625 49.4503 35.3942 53.0369 35.3942 57.0994Z" fill="#2BA1CF"/>
<path d="M35.3942 57.0994V87.1574C33.1652 86.7156 30.9993 86.1074 28.9072 85.342C27.6947 84.9002 26.5077 84.4061 25.3475 83.8622C24.9528 83.6769 24.5593 83.4849 24.1693 83.2855C23.1675 82.7793 22.1887 82.2348 21.2333 81.6547C16.447 78.7563 12.2589 74.9704 8.89319 70.5258V57.0994C8.89319 51.5826 12.6395 46.94 17.7273 45.5804C17.9146 45.5301 18.1013 45.4831 18.2913 45.4442C18.7961 45.3327 19.3151 45.2568 19.8428 45.2139C20.1644 45.189 20.4894 45.1743 20.8184 45.1743H23.467C24.3344 45.1743 25.1804 45.2662 25.9961 45.4442C26.0424 45.4529 26.0894 45.4636 26.1357 45.4744C26.2727 45.5052 26.411 45.5388 26.5453 45.5751C26.5493 45.5771 26.5527 45.5771 26.556 45.5784C27.8995 45.9376 29.1476 46.5251 30.2594 47.2972C33.3625 49.4503 35.3942 53.0369 35.3942 57.0994Z" fill="#66BAED"/>
<path d="M26.5856 45.4435L26.5574 45.5784L22.9896 62.1718C22.6472 63.7663 21.244 64.9224 19.6139 64.9238C19.6038 64.9238 19.5944 64.9238 19.585 64.9238C19.5743 64.9238 19.5642 64.9238 19.5535 64.9238C17.9227 64.9224 16.5201 63.7663 16.1777 62.1718L12.61 45.5798L12.5818 45.4435H26.5856Z" fill="#F2F0EC"/>
<path d="M19.5837 50.0566L14.2146 53.0402L12.5818 45.4435L15.9179 43.479" fill="#D8D5D0"/>
<path d="M19.5837 50.0566L24.9528 53.0402L26.5856 45.4435L23.2495 43.479" fill="#D8D5D0"/>
<path d="M3.55365 42.3V24.3149C3.55365 22.4874 3.85846 20.6968 4.46002 18.9929C6.71118 12.5878 12.7892 8.2829 19.5844 8.2829C20.4263 8.2829 21.2662 8.34802 22.0826 8.47693C25.8155 9.06036 29.2409 10.9658 31.7244 13.8427C34.234 16.7504 35.6164 20.4692 35.6164 24.3149V42.3" fill="#CC7A3B"/>
<path d="M10.148 25.0172C10.148 31.3786 13.8735 38.7383 15.9193 42.3H3.55298V24.3149C3.55298 22.4881 3.85846 20.6975 4.45935 18.9929C6.69708 12.6248 12.7194 8.33258 19.4675 8.28424C14.5389 8.4071 10.148 16.3147 10.148 25.0172Z" fill="#A35418"/>
<path d="M23.8396 40.5806V45.8027C23.8396 47.7141 22.5794 49.3301 20.8432 49.8666C20.4457 49.9901 20.0221 50.0566 19.5844 50.0566C17.2345 50.0566 15.3304 48.1525 15.3304 45.8027V40.5806H23.8396Z" fill="#EAB599"/>
<path d="M23.8396 45.4717V45.8027C23.8396 47.7141 22.5794 49.3301 20.8432 49.8666C19.2769 49.3852 18.0992 48.0229 17.8817 46.3566C18.1657 46.374 18.4517 46.3828 18.7384 46.3828C19.5434 46.3828 20.3329 46.319 21.101 46.1927C22.0483 46.0403 22.9641 45.7966 23.8396 45.4717Z" fill="#F6CAAE"/>
<path d="M7.91364 32.0231C7.91364 33.993 6.47485 35.6265 4.59027 35.9293C4.38483 35.9628 4.17267 35.9803 3.95648 35.9803C1.77112 35.9803 0 34.2092 0 32.0231C0 29.8378 1.77112 28.0667 3.95648 28.0667C4.17267 28.0667 4.38483 28.0841 4.59027 28.1177C6.47485 28.4205 7.91364 30.0533 7.91364 32.0231Z" fill="#F6CAAE"/>
<path d="M7.91364 32.0231C7.91364 33.993 6.47485 35.6265 4.59027 35.9293C4.24854 34.6852 4.06525 33.3753 4.06525 32.0231C4.06525 30.6716 4.24854 29.3618 4.59027 28.1177C6.47485 28.4205 7.91364 30.0533 7.91364 32.0231Z" fill="#EAB599"/>
<path d="M5.37109 32.0231C5.37109 32.8046 4.73798 33.4377 3.95648 33.4377C3.17566 33.4377 2.54254 32.8046 2.54254 32.0231C2.54254 31.2423 3.17566 30.6092 3.95648 30.6092C4.73798 30.6092 5.37109 31.2423 5.37109 32.0231Z" fill="#EAB599"/>
<path d="M29.7444 26.9709V40.5719C27.6423 42.5787 24.9467 43.9684 21.9476 44.4518C21.9241 44.4559 21.8986 44.4599 21.8751 44.4639C21.1299 44.5828 20.3652 44.6418 19.5844 44.6418C11.4545 44.6418 4.86353 38.0508 4.86353 29.921V24.3149C4.86353 23.5972 4.91455 22.8909 5.01392 22.2007C8.51654 24.7198 13.5385 24.4707 16.7383 21.4468C17.7978 20.4457 18.5343 19.254 18.9506 17.9898C19.1822 20.2034 20.1946 22.3578 21.9893 24.0544C24.1256 26.0713 26.9481 27.0441 29.7444 26.9709Z" fill="#EAB599"/>
<path d="M29.7444 26.9709V40.5719C27.6423 42.5787 24.9467 43.9684 21.9476 44.4518C21.9241 44.4559 21.8986 44.4599 21.8751 44.4639C14.8336 43.3635 9.44775 37.27 9.44775 29.921V24.3149C9.44775 24.1659 9.45044 24.0175 9.45581 23.8698C12.0514 24.1357 14.7477 23.3287 16.7383 21.4461C17.7978 20.4457 18.5343 19.2534 18.9506 17.9898C19.1822 20.2034 20.1946 22.3578 21.9893 24.0544C24.1256 26.0713 26.9481 27.0441 29.7444 26.9709Z" fill="#F6CAAE"/>
<path d="M27.4913 28.6776C27.4913 27.3268 26.3962 26.2324 25.0461 26.2324C23.6959 26.2324 22.6009 27.3268 22.6009 28.6776" fill="#EAB599"/>
<path d="M16.5705 28.6776C16.5705 27.3268 15.4755 26.2324 14.1253 26.2324C12.7751 26.2324 11.6808 27.3268 11.6808 28.6776" fill="#EAB599"/>
<path d="M15.7957 29.7183C15.7957 30.6407 15.0478 31.3887 14.1253 31.3887C13.2028 31.3887 12.4556 30.6407 12.4556 29.7183C12.4556 28.7958 13.2028 28.0485 14.1253 28.0485C15.0478 28.0485 15.7957 28.7958 15.7957 29.7183Z" fill="#3D4159"/>
<path d="M26.7158 29.7183C26.7158 30.6407 25.9686 31.3887 25.0461 31.3887C24.1236 31.3887 23.3763 30.6407 23.3763 29.7183C23.3763 28.7958 24.1236 28.0485 25.0461 28.0485C25.9686 28.0485 26.7158 28.7958 26.7158 29.7183Z" fill="#3D4159"/>
<path d="M21.2561 33.9232H17.916C17.5178 33.9232 17.1956 33.6002 17.1956 33.2028C17.1956 32.8053 17.5178 32.4824 17.916 32.4824H21.2561C21.6536 32.4824 21.9758 32.8053 21.9758 33.2028C21.9758 33.6002 21.6536 33.9232 21.2561 33.9232Z" fill="#EAB599"/>
<path d="M19.5857 38.4812C18.3531 38.4812 17.1204 38.1724 15.9965 37.554C15.6796 37.3801 15.5641 36.982 15.738 36.6651C15.9126 36.3482 16.3107 36.2327 16.6276 36.4066C18.48 37.4251 20.6915 37.4251 22.5439 36.4066C22.8608 36.2321 23.2589 36.3482 23.4335 36.6651C23.6073 36.982 23.4919 37.3801 23.175 37.554C22.0511 38.1724 20.8184 38.4812 19.5857 38.4812Z" fill="#EAB599"/>
<path d="M15.4553 29.4235C15.4553 29.819 15.1344 30.1392 14.7396 30.1392C14.3442 30.1392 14.0239 29.819 14.0239 29.4235C14.0239 29.0281 14.3442 28.7078 14.7396 28.7078C15.1344 28.7078 15.4553 29.0281 15.4553 29.4235Z" fill="white"/>
<path d="M26.4573 29.4235C26.4573 29.819 26.1371 30.1392 25.7423 30.1392C25.3469 30.1392 25.0266 29.819 25.0266 29.4235C25.0266 29.0281 25.3469 28.7078 25.7423 28.7078C26.1371 28.7078 26.4573 29.0281 26.4573 29.4235Z" fill="white"/>
<path d="M29.6055 33.7862C29.6055 34.7986 28.7844 35.6198 27.7712 35.6198C26.7588 35.6198 25.9377 34.7986 25.9377 33.7862C25.9377 32.7731 26.7588 31.952 27.7712 31.952C28.7844 31.952 29.6055 32.7731 29.6055 33.7862Z" fill="#EAB599"/>
<path d="M13.2324 33.7862C13.2324 34.7986 12.4119 35.6198 11.3988 35.6198C10.3864 35.6198 9.56525 34.7986 9.56525 33.7862C9.56525 32.7731 10.3864 31.952 11.3988 31.952C12.4119 31.952 13.2324 32.7731 13.2324 33.7862Z" fill="#EAB599"/>
<path d="M84.0509 56.7369V62.2449C79.7158 71.7471 72.0989 79.4351 62.6505 83.8643C60.9391 84.6652 59.1666 85.3601 57.3418 85.9382C55.2894 86.5941 53.1718 87.0983 50.9985 87.4448C50.9898 87.4468 50.9791 87.4488 50.9697 87.4488V56.7369C50.9697 50.1909 56.0111 44.8204 62.4262 44.3035C62.7639 44.2746 63.103 44.2625 63.446 44.2625H71.5712C72.5319 44.2625 73.4672 44.3679 74.3655 44.5747C79.9111 45.8423 84.0509 50.8085 84.0509 56.7369Z" fill="#BFD5DE"/>
<path d="M84.0509 56.7369V62.2449C79.7158 71.7471 72.0989 79.4351 62.6505 83.8643C60.9391 84.6652 59.1666 85.3601 57.3418 85.9382V56.7369C57.3418 49.8478 62.9291 44.2625 69.8202 44.2625H71.5725C78.4656 44.2625 84.0509 49.8478 84.0509 56.7369Z" fill="#DDE8ED"/>
<path d="M55.2981 30.5018C55.2981 32.5629 53.7928 34.2716 51.8217 34.5885C51.6061 34.6234 51.3846 34.6415 51.1583 34.6415C48.8716 34.6415 47.0186 32.7885 47.0186 30.5018C47.0186 28.215 48.8716 26.362 51.1583 26.362C51.3846 26.362 51.6061 26.3801 51.8217 26.415C53.7928 26.7326 55.2981 28.4413 55.2981 30.5018Z" fill="#D3A489"/>
<path d="M70.8595 48.7628L67.5099 54.1353L64.1604 48.7628" fill="#F74F4F"/>
<path d="M72.0163 69.3113L67.5099 74.9979L63.0029 69.3113L67.5106 52.7374L72.0163 69.3113Z" fill="#F74F4F"/>
<path d="M55.2981 30.5018C55.2981 32.5629 53.7928 34.2716 51.8217 34.5885C51.4638 33.2867 51.2725 31.9164 51.2725 30.5018C51.2725 29.0878 51.4638 27.7175 51.8217 26.415C53.7928 26.7326 55.2981 28.4413 55.2981 30.5018Z" fill="#BF8E75"/>
<path d="M52.6381 30.5018C52.6381 31.3188 51.9754 31.9815 51.1583 31.9815C50.3412 31.9815 49.6793 31.3188 49.6793 30.5018C49.6793 29.6847 50.3412 29.0227 51.1583 29.0227C51.9754 29.0227 52.6381 29.6847 52.6381 30.5018Z" fill="#BF8E75"/>
<path d="M67.5086 49.3691L61.8918 52.491L60.1831 44.5425L63.673 42.4867" fill="#BFD5DE"/>
<path d="M67.5086 49.3691L73.1261 52.491L74.8348 44.5425L71.3442 42.4867" fill="#BFD5DE"/>
<path d="M79.7205 30.5018C79.7205 32.5629 81.2257 34.2716 83.1969 34.5885C83.4124 34.6234 83.634 34.6415 83.8602 34.6415C86.147 34.6415 88 32.7885 88 30.5018C88 28.215 86.147 26.362 83.8602 26.362C83.634 26.362 83.4124 26.3801 83.1969 26.415C81.2257 26.7326 79.7205 28.4413 79.7205 30.5018Z" fill="#D3A489"/>
<path d="M79.7205 30.5018C79.7205 32.5629 81.2257 34.2716 83.1969 34.5885C83.5554 33.2867 83.7461 31.9164 83.7461 30.5018C83.7461 29.0878 83.5554 27.7175 83.1969 26.415C81.2257 26.7326 79.7205 28.4413 79.7205 30.5018Z" fill="#BF8E75"/>
<path d="M85.34 30.5018C85.34 31.3188 84.6773 31.9815 83.8602 31.9815C83.0432 31.9815 82.3805 31.3188 82.3805 30.5018C82.3805 29.6847 83.0432 29.0227 83.8602 29.0227C84.6773 29.0227 85.34 29.6847 85.34 30.5018Z" fill="#BF8E75"/>
<path d="M82.9122 28.3017C82.9122 35.9662 77.3129 42.3249 69.9813 43.5052C69.1777 43.6375 68.3519 43.7039 67.5093 43.7039C59.0021 43.7039 52.107 36.8088 52.107 28.3017C52.107 24.2767 53.5048 18.2342 56.0326 15.4903C58.847 12.4348 63.0271 12.8987 67.5093 12.8987C68.3519 12.8987 69.177 12.9658 69.9813 13.0981C77.3129 14.2784 82.9122 20.6364 82.9122 28.3017Z" fill="#BF8E75"/>
<path d="M71.9612 39.4554V44.9185C71.9612 46.9185 70.6426 48.6091 68.8259 49.1703C68.4103 49.2993 67.9672 49.3691 67.5086 49.3691C65.0507 49.3691 63.058 47.3764 63.058 44.9185V39.4554H71.9612Z" fill="#BF8E75"/>
<path d="M71.9612 44.572V44.9185C71.9612 46.9185 70.6426 48.6091 68.8259 49.1703C67.187 48.6668 65.955 47.2415 65.7274 45.4979C66.0248 45.516 66.3236 45.5254 66.6244 45.5254C67.4663 45.5254 68.2921 45.4583 69.0964 45.3267C70.0874 45.1669 71.0448 44.9124 71.9612 44.572Z" fill="#D3A489"/>
<path d="M82.9122 28.3016C82.9122 35.9662 77.3129 42.3249 69.9813 43.5052C62.6505 42.3249 57.0511 35.9662 57.0511 28.3016C57.0511 23.5818 59.174 19.3574 62.5182 16.5316C64.6035 14.7685 67.1649 13.5513 69.9813 13.0974C76.816 14.1978 82.1475 19.8005 82.8364 26.7655C82.8867 27.2711 82.9122 27.784 82.9122 28.3016Z" fill="#D3A489"/>
<path d="M67.51 35.8877C66.2196 35.8877 64.9305 35.5647 63.7549 34.9182C63.4226 34.7362 63.3017 34.3193 63.4843 33.9876C63.6663 33.656 64.0832 33.5351 64.4149 33.7177C66.3525 34.7826 68.6668 34.7826 70.6051 33.7177C70.9361 33.5351 71.353 33.656 71.535 33.9876C71.7176 34.3193 71.5967 34.7362 71.2651 34.9182C70.0895 35.5647 68.799 35.8877 67.51 35.8877Z" fill="#BF8E75"/>
<path d="M64.2296 27.4053C64.2296 28.3701 63.4474 29.1523 62.4819 29.1523C61.5172 29.1523 60.735 28.3701 60.735 27.4053C60.735 26.4399 61.5172 25.6577 62.4819 25.6577C63.4474 25.6577 64.2296 26.4399 64.2296 27.4053Z" fill="#3D4159"/>
<path d="M74.2842 27.4053C74.2842 28.3701 73.5021 29.1523 72.5373 29.1523C71.5718 29.1523 70.7897 28.3701 70.7897 27.4053C70.7897 26.4399 71.5718 25.6577 72.5373 25.6577C73.5021 25.6577 74.2842 26.4399 74.2842 27.4053Z" fill="#3D4159"/>
<path d="M63.873 27.0965C63.873 27.5101 63.538 27.8458 63.1245 27.8458C62.7109 27.8458 62.3759 27.5101 62.3759 27.0965C62.3759 26.6836 62.7109 26.3479 63.1245 26.3479C63.538 26.3479 63.873 26.6836 63.873 27.0965Z" fill="white"/>
<path d="M74.0137 27.0965C74.0137 27.5101 73.6786 27.8458 73.2651 27.8458C72.8515 27.8458 72.5165 27.5101 72.5165 27.0965C72.5165 26.6836 72.8515 26.3479 73.2651 26.3479C73.6786 26.3479 74.0137 26.6836 74.0137 27.0965Z" fill="white"/>
<path d="M69.2569 31.8043H65.7623C65.3461 31.8043 65.0084 31.4666 65.0084 31.0503C65.0084 30.634 65.3461 30.297 65.7623 30.297H69.2569C69.6732 30.297 70.0109 30.634 70.0109 31.0503C70.0102 31.4666 69.6732 31.8043 69.2569 31.8043Z" fill="#BF8E75"/>
<path d="M72.5809 56.328H79.2955V58.3831H72.5809V56.328Z" fill="#BFD5DE"/>
<path d="M66.6083 8.49915C71.2744 8.83216 75.0208 12.6013 75.2578 17.346L75.3021 18.2369H77.9863L79.4318 27.8499L82.933 26.7662L82.4631 17.3467C82.2147 12.3623 78.0923 8.45618 73.1039 8.47498L66.6083 8.49915Z" fill="#2A2F4F"/>
<path d="M82.1663 4.78094C85.8818 8.4964 85.8818 14.5208 82.1663 18.2362C78.4509 21.9517 72.4265 21.9517 68.7111 18.2362L82.1663 4.78094Z" fill="#3D4159"/>
<path d="M68.7111 18.2363H57.0343L55.5881 27.8499L52.0869 26.7662L52.5562 17.346C52.8046 12.363 56.9269 8.45551 61.916 8.47431L78.7805 8.53809L81.0102 12.551" fill="#3D4159"/>
<path d="M68.4109 8.49915C63.7448 8.83216 59.9985 12.6013 59.7615 17.346L59.7172 18.2369H57.0336L55.5875 27.8499L52.0862 26.7662L52.5562 17.3467C52.8046 12.3623 56.9269 8.45618 61.9153 8.47498L68.4109 8.49915Z" fill="#2A2F4F"/>
<path d="M62.6505 80.5651V83.8643C56.988 86.5169 50.6682 88 44 88C37.3318 88 31.01 86.5169 25.3475 83.8622V80.5651C25.3475 74.0546 29.7673 68.5788 35.7708 66.9735C35.9904 66.9144 36.2112 66.86 36.4355 66.8117C37.0317 66.6821 37.644 66.5928 38.2657 66.5425C38.6464 66.5116 39.0291 66.4955 39.4171 66.4955H48.5795C49.6047 66.4955 50.6017 66.6036 51.5645 66.8117C51.6202 66.8224 51.676 66.8352 51.7297 66.848C51.8915 66.8856 52.0526 66.9252 52.2124 66.9681C52.2184 66.9695 52.2198 66.9695 52.2252 66.9715C53.8096 67.3951 55.284 68.0887 56.5932 68.9991C60.2549 71.5389 62.6505 75.7714 62.6505 80.5651Z" fill="#3D4159"/>
<path d="M52.2594 66.8117L52.2252 66.9715L47.7376 87.8422C47.5053 87.8617 47.2723 87.8798 47.0387 87.8959C46.7097 87.9174 46.3794 87.9369 46.0471 87.9517C45.3683 87.9839 44.6862 88 44 88C43.2957 88 42.5975 87.9839 41.9026 87.9496C41.5884 87.9355 41.2735 87.9174 40.9593 87.8939C40.7243 87.8778 40.4907 87.8617 40.257 87.8422L35.7708 66.9735L35.7372 66.8117H52.2594Z" fill="#66BAED"/>
<path d="M47.7759 71.5725L43.9987 77.6298L40.2221 71.5725" fill="#3D4159"/>
<path d="M47.0387 87.8959C46.7097 87.9174 46.3794 87.9369 46.0471 87.9517C45.3683 87.9839 44.6862 88 44 88C43.2957 88 42.5975 87.9839 41.9026 87.9496C41.5884 87.9355 41.2735 87.9174 40.9593 87.8939L44 76.0533L47.0387 87.8959Z" fill="#3D4159"/>
<path d="M43.998 72.2553L37.6635 75.7754L35.7366 66.813L39.6722 64.4948" fill="#2BA1CF"/>
<path d="M43.998 72.2553L50.3318 75.7754L52.2587 66.813L48.3231 64.4948" fill="#2BA1CF"/>
<path d="M52.4984 78.9074H54.5079L50.9985 87.4448C49.3751 87.7053 47.7228 87.8758 46.0471 87.9517L52.2124 66.9681L52.2594 66.8117L56.5932 68.227L52.4984 78.9074Z" fill="#2A2F4F"/>
<path d="M41.9026 87.9496C40.2248 87.8724 38.5712 87.6985 36.9478 87.436L33.4418 78.9074H35.4512L31.3551 68.227L35.6902 66.8117L35.7372 66.9681L41.9026 87.9496Z" fill="#2A2F4F"/>
<path d="M49.0186 61.076V67.236C49.0186 69.4919 47.5315 71.3979 45.4831 72.0311C45.0138 72.1768 44.5143 72.2553 43.9973 72.2553C41.2252 72.2553 38.9787 70.0082 38.9787 67.236V61.076H49.0186Z" fill="#EAB599"/>
<path d="M49.0186 66.8459V67.2367C49.0186 69.4919 47.5315 71.3979 45.4831 72.0317C43.6348 71.4631 42.245 69.8564 41.9885 67.89C42.3242 67.9108 42.6613 67.9208 42.9996 67.9208C43.9496 67.9208 44.8809 67.8456 45.7872 67.6973C46.9051 67.5173 47.9847 67.2293 49.0186 66.8459Z" fill="#F6CAAE"/>
<path d="M30.2285 50.9797C30.2285 53.3034 28.5306 55.2303 26.3076 55.5881C26.0646 55.6271 25.8148 55.6479 25.5604 55.6479C22.9816 55.6479 20.8915 53.5585 20.8915 50.9797C20.8915 48.4009 22.9809 46.3109 25.5604 46.3109C25.8148 46.3109 26.0646 46.3317 26.3076 46.3713C28.5306 46.7292 30.2285 48.6561 30.2285 50.9797Z" fill="#F6CAAE"/>
<path d="M30.2285 50.9797C30.2285 53.3034 28.5306 55.2303 26.3076 55.5881C25.9041 54.1198 25.6886 52.5743 25.6886 50.9797C25.6886 49.3845 25.9041 47.8397 26.3076 46.3713C28.5306 46.7292 30.2285 48.6561 30.2285 50.9797Z" fill="#EAB599"/>
<path d="M27.2288 50.9797C27.2288 51.9009 26.4815 52.6481 25.5604 52.6481C24.6385 52.6481 23.892 51.9009 23.892 50.9797C23.892 50.0579 24.6385 49.3113 25.5604 49.3113C26.4815 49.3113 27.2288 50.0579 27.2288 50.9797Z" fill="#EAB599"/>
<path d="M57.7681 50.9797C57.7681 53.3034 59.4661 55.2303 61.689 55.5881C61.9314 55.6271 62.1818 55.6479 62.4363 55.6479C65.0151 55.6479 67.1051 53.5585 67.1051 50.9797C67.1051 48.4009 65.0157 46.3109 62.4363 46.3109C62.1818 46.3109 61.9314 46.3317 61.689 46.3713C59.4661 46.7292 57.7681 48.6561 57.7681 50.9797Z" fill="#F6CAAE"/>
<path d="M57.7681 50.9797C57.7681 53.3034 59.4661 55.2303 61.689 55.5881C62.0925 54.1198 62.308 52.5743 62.308 50.9797C62.308 49.3845 62.0925 47.8397 61.689 46.3713C59.4661 46.7292 57.7681 48.6561 57.7681 50.9797Z" fill="#EAB599"/>
<path d="M61.3674 41.8851V48.499C61.3674 57.1424 55.053 64.3121 46.7856 65.6428C46.7581 65.6475 46.7285 65.6522 46.701 65.6569C45.8215 65.7979 44.9191 65.8671 43.998 65.8671C34.4059 65.8671 26.6306 58.0911 26.6306 48.4996V41.8851C26.6306 39.8656 26.975 37.9246 27.6115 36.1213C29.9868 29.3618 36.4274 24.5157 43.998 24.5157H43.9993C44.9191 24.5157 45.8228 24.5869 46.7037 24.7258C55.0114 26.0236 61.3674 33.2128 61.3674 41.8851Z" fill="#EAB599"/>
<path d="M64.1047 50.9797C64.1047 51.9009 63.3581 52.6481 62.4363 52.6481C61.5151 52.6481 60.7679 51.9009 60.7679 50.9797C60.7679 50.0579 61.5151 49.3113 62.4363 49.3113C63.3581 49.3113 64.1047 50.0579 64.1047 50.9797Z" fill="#EAB599"/>
<path d="M61.3668 41.8851V48.499C61.3668 57.1417 55.053 64.3121 46.7856 65.6428C46.7574 65.6475 46.7285 65.6522 46.7003 65.6569C38.3932 64.3585 32.0386 57.1699 32.0386 48.499V41.8851C32.0386 33.2128 38.3946 26.0236 46.7037 24.7258C55.0114 26.0236 61.3668 33.2128 61.3668 41.8851Z" fill="#F6CAAE"/>
<path d="M40.2993 47.4872C40.2993 48.5755 39.4171 49.4577 38.3295 49.4577C37.2411 49.4577 36.3589 48.5755 36.3589 47.4872C36.3589 46.3995 37.2411 45.5173 38.3295 45.5173C39.4171 45.5173 40.2993 46.3995 40.2993 47.4872Z" fill="#3D4159"/>
<path d="M51.6384 47.4872C51.6384 48.5755 50.7562 49.4577 49.6678 49.4577C48.5795 49.4577 47.6973 48.5755 47.6973 47.4872C47.6973 46.3995 48.5795 45.5173 49.6678 45.5173C50.7562 45.5173 51.6384 46.3995 51.6384 47.4872Z" fill="#3D4159"/>
<path d="M39.8978 47.1401C39.8978 47.606 39.5198 47.984 39.0532 47.984C38.5873 47.984 38.2093 47.606 38.2093 47.1401C38.2093 46.6735 38.5873 46.2955 39.0532 46.2955C39.5198 46.2955 39.8978 46.6735 39.8978 47.1401Z" fill="white"/>
<path d="M51.3329 47.1401C51.3329 47.606 50.9549 47.984 50.489 47.984C50.0223 47.984 49.6443 47.606 49.6443 47.1401C49.6443 46.6735 50.0223 46.2955 50.489 46.2955C50.9549 46.2955 51.3329 46.6735 51.3329 47.1401Z" fill="white"/>
<path d="M45.9692 51.676H42.0281C41.5588 51.676 41.1782 51.2953 41.1782 50.826C41.1782 50.356 41.5588 49.976 42.0281 49.976H45.9692C46.4385 49.976 46.8192 50.356 46.8192 50.826C46.8185 51.2953 46.4378 51.676 45.9692 51.676Z" fill="#EAB599"/>
<path d="M43.9987 57.0532C42.5444 57.0532 41.0895 56.6886 39.7642 55.9595C39.3903 55.7541 39.2533 55.2841 39.4594 54.9108C39.6648 54.5368 40.1348 54.4006 40.5088 54.6053C42.6941 55.8071 45.3032 55.8071 47.4885 54.6053C47.8625 54.3999 48.3325 54.5362 48.5379 54.9108C48.744 55.2841 48.6071 55.7541 48.2331 55.9595C46.9071 56.6886 45.4529 57.0532 43.9987 57.0532Z" fill="#EAB599"/>
<path d="M61.3674 35.8829V42.6579H58.1347V37.3519L34.8 33.0161L29.8626 32.0983V42.6579H26.6299V35.8823C26.6299 28.1586 32.8899 21.8986 40.6122 21.8986H47.3851C47.5691 21.8986 47.7531 21.902 47.937 21.9114C55.4022 22.1987 61.3674 28.3433 61.3674 35.8829Z" fill="#2A2F4F"/>
<path d="M61.3674 35.8829V42.6579H58.1347V37.3519L34.8 33.0161C36.0857 26.8407 41.4434 22.1618 47.937 21.9114C55.4022 22.1987 61.3674 28.3433 61.3674 35.8829Z" fill="#3D4159"/>
</g>
<defs>
<clipPath id="clip0_601_1695">
<rect width="88" height="88" fill="white"/>
</clipPath>
</defs>
</svg>
