<svg width="88" height="88" viewBox="0 0 88 88" fill="none" xmlns="http://www.w3.org/2000/svg">
<g clip-path="url(#clip0_601_1850)">
<path d="M45.8906 86.1094C69.147 86.1094 88 67.2564 88 44C88 20.7436 69.147 1.89062 45.8906 1.89062C22.6343 1.89062 3.78125 20.7436 3.78125 44C3.78125 67.2564 22.6343 86.1094 45.8906 86.1094Z" fill="#35A5FF"/>
<path d="M45.4489 61.6223H31.9207V68.7087H45.4489V61.6223Z" fill="#445EA0"/>
<path d="M35.331 61.6223H31.9207V68.7087H35.331V61.6223Z" fill="#2E4C89"/>
<path d="M54.4596 68.5374H21.9244C21.4421 68.5374 21.0477 68.9321 21.0477 69.4143V73.8094C21.0477 74.2916 21.4423 74.6863 21.9244 74.6863H54.4596V68.5374Z" fill="#293D7C"/>
<path d="M24.458 73.8092V69.4141C24.458 68.9319 24.8526 68.5372 25.3349 68.5372H21.9244C21.4421 68.5372 21.0477 68.9319 21.0477 69.4141V73.8092C21.0477 74.2914 21.4423 74.6861 21.9244 74.6861H25.3347C24.8526 74.6861 24.458 74.2914 24.458 73.8092Z" fill="#1A2B63"/>
<path d="M76.4936 10.1343H0.876906C0.394625 10.1343 0 10.529 0 11.0112V60.9176C0 61.4 0.394625 61.7945 0.876906 61.7945H54.4596V35.5382C54.4596 34.8749 54.9993 34.335 55.6627 34.335H77.3706V11.0112C77.3706 10.529 76.9759 10.1343 76.4936 10.1343Z" fill="#293D7C"/>
<path d="M3.84932 53.0258C3.84932 53.3153 4.08599 53.5518 4.37543 53.5518H54.4596V35.5382C54.4596 34.875 54.9993 34.3351 55.6628 34.3351H73.5213V18.734H3.84932V53.0258Z" fill="white"/>
<path d="M7.25983 53.0258V18.734H3.84932V53.0258C3.84932 53.3153 4.08599 53.5518 4.37543 53.5518H7.78594C7.49651 53.5518 7.25983 53.3151 7.25983 53.0258Z" fill="#D9EAFC"/>
<path d="M38.6856 60.0246C39.9931 60.0246 41.053 58.9647 41.053 57.6572C41.053 56.3497 39.9931 55.2898 38.6856 55.2898C37.3781 55.2898 36.3182 56.3497 36.3182 57.6572C36.3182 58.9647 37.3781 60.0246 38.6856 60.0246Z" fill="#445EA0"/>
<path d="M54.4596 38.3532H45.2774C44.9938 38.3532 44.7617 38.5852 44.7617 38.8688V49.1193C44.7617 49.4029 44.9938 49.6349 45.2774 49.6349H54.4596V38.3532Z" fill="#C3DDF4"/>
<path d="M48.1721 49.1193V38.8688C48.1721 38.5852 48.4041 38.3532 48.6877 38.3532H45.2774C44.9938 38.3532 44.7617 38.5852 44.7617 38.8688V49.1193C44.7617 49.4029 44.9938 49.6349 45.2774 49.6349H48.6877C48.4041 49.6349 48.1721 49.4029 48.1721 49.1193Z" fill="#AEC1ED"/>
<path d="M55.6627 34.3351H63.6752V23.0976C63.6752 22.6249 63.2885 22.2382 62.8158 22.2382H14.5547C14.0821 22.2382 13.6953 22.6249 13.6953 23.0976V34.5316C13.6953 35.0042 14.0821 35.391 14.5547 35.391H54.4698C54.5426 34.797 55.0495 34.3351 55.6627 34.3351Z" fill="#C3DDF4"/>
<path d="M17.1057 34.5314V23.0974C17.1057 22.6248 17.4924 22.238 17.9651 22.238H14.5547C14.0821 22.238 13.6953 22.6248 13.6953 23.0974V34.5314C13.6953 35.0041 14.0821 35.3908 14.5547 35.3908H17.9651C17.4924 35.3908 17.1057 35.0041 17.1057 34.5314Z" fill="#AEC1ED"/>
<path d="M72.9951 14.6065H4.37543C4.08599 14.6065 3.84932 14.8432 3.84932 15.1328V18.906H73.5213V15.1328C73.5213 14.8432 73.2844 14.6065 72.9951 14.6065Z" fill="#FFAF10"/>
<path d="M7.78594 14.6065H4.37543C4.08599 14.6065 3.84932 14.8432 3.84932 15.1328V18.906H7.25966V15.1328C7.25984 14.8432 7.49651 14.6065 7.78594 14.6065Z" fill="#FF9518"/>
<path d="M29.4773 41.0745H15.0105C14.2986 41.0745 13.7215 40.4975 13.7215 39.7855C13.7215 39.0734 14.2986 38.4964 15.0105 38.4964H29.4773C30.1892 38.4964 30.7663 39.0734 30.7663 39.7855C30.7663 40.4975 30.1892 41.0745 29.4773 41.0745Z" fill="#5DC1D8"/>
<path d="M29.4773 45.2832H15.0105C14.2986 45.2832 13.7215 44.7062 13.7215 43.9941C13.7215 43.282 14.2986 42.705 15.0105 42.705H29.4773C30.1892 42.705 30.7663 43.282 30.7663 43.9941C30.7663 44.706 30.1892 45.2832 29.4773 45.2832Z" fill="#5DC1D8"/>
<path d="M29.4773 49.4918H15.0105C14.2986 49.4918 13.7215 48.9148 13.7215 48.2028C13.7215 47.4907 14.2986 46.9137 15.0105 46.9137H29.4773C30.1892 46.9137 30.7663 47.4907 30.7663 48.2028C30.7663 48.9148 30.1892 49.4918 29.4773 49.4918Z" fill="#5DC1D8"/>
<path d="M40.8306 41.0745H33.384C32.6721 41.0745 32.0949 40.4975 32.0949 39.7855C32.0949 39.0734 32.6721 38.4964 33.384 38.4964H40.8306C41.5425 38.4964 42.1197 39.0734 42.1197 39.7855C42.1197 40.4975 41.5425 41.0745 40.8306 41.0745Z" fill="#5DC1D8"/>
<path d="M40.8306 45.2832H33.384C32.6721 45.2832 32.0949 44.7062 32.0949 43.9941C32.0949 43.282 32.6721 42.705 33.384 42.705H40.8306C41.5425 42.705 42.1197 43.282 42.1197 43.9941C42.1197 44.706 41.5425 45.2832 40.8306 45.2832Z" fill="#5DC1D8"/>
<path d="M40.8306 49.4918H33.384C32.6721 49.4918 32.0949 48.9148 32.0949 48.2028C32.0949 47.4907 32.6721 46.9137 33.384 46.9137H40.8306C41.5425 46.9137 42.1197 47.4907 42.1197 48.2028C42.1197 48.9148 41.5425 49.4918 40.8306 49.4918Z" fill="#5DC1D8"/>
<path d="M86.625 34.1632C87.3813 34.1632 88 34.782 88 35.5382V77.0924C88 77.8487 87.3813 78.4674 86.625 78.4674H55.6628C54.9065 78.4674 54.2878 77.8487 54.2878 77.0924V35.5382C54.2878 34.782 54.9065 34.1632 55.6628 34.1632H86.625Z" fill="#445EA0"/>
<path d="M58.0193 73.0684C57.5466 73.0684 57.1599 72.6817 57.1599 72.209V37.6716C57.1599 37.1989 57.5466 36.8122 58.0193 36.8122H84.2686C84.7412 36.8122 85.1279 37.1989 85.1279 37.6716V72.209C85.1279 72.6817 84.7412 73.0684 84.2686 73.0684H58.0193Z" fill="white"/>
<path d="M60.5703 72.209V37.6716C60.5703 37.1989 60.957 36.8122 61.4296 36.8122H58.0193C57.5466 36.8122 57.1599 37.1989 57.1599 37.6716V72.209C57.1599 72.6817 57.5466 73.0684 58.0193 73.0684H61.4296C60.957 73.0684 60.5703 72.6817 60.5703 72.209Z" fill="#D9EAFC"/>
<path d="M69.5349 76.5059C69.0623 76.5059 68.6756 76.1192 68.6756 75.6466V75.3123C68.6756 74.8396 69.0623 74.4529 69.5349 74.4529H72.7529C73.2256 74.4529 73.6123 74.8396 73.6123 75.3123V75.6466C73.6123 76.1192 73.2256 76.5059 72.7529 76.5059H69.5349Z" fill="#445EA0"/>
<path d="M85.1279 40.1282V37.6716C85.1279 37.1989 84.7412 36.8122 84.2686 36.8122H58.0193C57.5466 36.8122 57.1599 37.1989 57.1599 37.6716V40.1282H85.1279Z" fill="#FFAF10"/>
<path d="M61.4296 36.8122H58.0193C57.5466 36.8122 57.1599 37.1989 57.1599 37.6716V40.1282H60.5703V37.6716C60.5703 37.1989 60.957 36.8122 61.4296 36.8122Z" fill="#FF9518"/>
<path d="M77.0022 55.8478H65.2857C64.5738 55.8478 63.9966 55.2708 63.9966 54.5587C63.9966 53.8466 64.5738 53.2697 65.2857 53.2697H77.0022C77.7141 53.2697 78.2913 53.8466 78.2913 54.5587C78.2913 55.2706 77.7141 55.8478 77.0022 55.8478Z" fill="#5DC1D8"/>
<path d="M77.0022 59.8228H65.2857C64.5738 59.8228 63.9966 59.2458 63.9966 58.5337C63.9966 57.8218 64.5738 57.2446 65.2857 57.2446H77.0022C77.7141 57.2446 78.2913 57.8218 78.2913 58.5337C78.2913 59.2458 77.7141 59.8228 77.0022 59.8228Z" fill="#5DC1D8"/>
<path d="M77.0022 63.7974H65.2857C64.5738 63.7974 63.9966 63.2204 63.9966 62.5083C63.9966 61.7964 64.5738 61.2192 65.2857 61.2192H77.0022C77.7141 61.2192 78.2913 61.7964 78.2913 62.5083C78.2913 63.2204 77.7141 63.7974 77.0022 63.7974Z" fill="#5DC1D8"/>
<path d="M82.458 50.2317C82.458 50.7044 82.0713 51.0911 81.5986 51.0911H60.6892C60.2165 51.0911 59.8298 50.7044 59.8298 50.2317V43.1429C59.8298 42.6703 60.2165 42.2835 60.6892 42.2835H81.5986C82.0713 42.2835 82.458 42.6703 82.458 43.1429V50.2317Z" fill="#C3DDF4"/>
<path d="M63.2401 50.2317V43.1429C63.2401 42.6703 63.6269 42.2835 64.0995 42.2835H60.6892C60.2165 42.2835 59.8298 42.6703 59.8298 43.1429V50.2317C59.8298 50.7044 60.2165 51.0911 60.6892 51.0911H64.0995C63.6269 51.0911 63.2401 50.7044 63.2401 50.2317Z" fill="#AEC1ED"/>
<path d="M79.3645 70.3683C79.3645 70.841 78.9778 71.2277 78.5051 71.2277H63.7828C63.3102 71.2277 62.9235 70.841 62.9235 70.3683V67.4619C62.9235 66.9893 63.3102 66.6025 63.7828 66.6025H78.5051C78.9778 66.6025 79.3645 66.9893 79.3645 67.4619V70.3683Z" fill="#C3DDF4"/>
<path d="M66.3338 70.3683V67.4619C66.3338 66.9893 66.7205 66.6025 67.1932 66.6025H63.7828C63.3102 66.6025 62.9235 66.9893 62.9235 67.4619V70.3683C62.9235 70.841 63.3102 71.2277 63.7828 71.2277H67.1932C66.7205 71.2277 66.3338 70.841 66.3338 70.3683Z" fill="#AEC1ED"/>
</g>
<defs>
<clipPath id="clip0_601_1850">
<rect width="88" height="88" fill="white"/>
</clipPath>
</defs>
</svg>
