<svg width="88" height="88" viewBox="0 0 88 88" fill="none" xmlns="http://www.w3.org/2000/svg">
<path d="M42.1094 87.2266C65.3657 87.2266 84.2188 68.3736 84.2188 45.1172C84.2188 21.8608 65.3657 3.00781 42.1094 3.00781C18.853 3.00781 0 21.8608 0 45.1172C0 68.3736 18.853 87.2266 42.1094 87.2266Z" fill="#35A5FF"/>
<path d="M9.79688 27.4709H3.8677C1.38669 32.8385 0 38.8155 0 45.1171C0 45.8653 0.0202812 46.6092 0.0587813 47.3477H9.79688V27.4709Z" fill="#445EA0"/>
<path d="M71.393 58.2227H67.6983V72.1227H71.393C72.3383 72.1227 73.1117 71.3493 73.1117 70.404V59.9414C73.1117 58.9961 72.3383 58.2227 71.393 58.2227Z" fill="#293D7C"/>
<path d="M48.4184 57.5764V72.769L62.6381 81.2532V49.092L48.4184 57.5764Z" fill="#EEF6FF"/>
<path d="M67.8701 83.972C67.8701 84.4447 67.4834 84.8314 67.0108 84.8314H63.3258C62.8531 84.8314 62.4664 84.4447 62.4664 83.972V46.373C62.4664 45.9003 62.8531 45.5136 63.3258 45.5136H67.0108C67.4834 45.5136 67.8701 45.9003 67.8701 46.373V83.972Z" fill="#FE3745"/>
<path d="M65.4184 83.972V46.373C65.4184 45.9003 65.8052 45.5136 66.2778 45.5136H63.3257C62.853 45.5136 62.4663 45.9003 62.4663 46.373V83.9722C62.4663 84.4448 62.853 84.8316 63.3257 84.8316H66.2778C65.8052 84.8314 65.4184 84.4447 65.4184 83.972Z" fill="#B7092B"/>
<path d="M32.814 58.8073H28.8297C28.3571 58.8073 27.9704 59.194 27.9704 59.6667V70.6784C27.9704 71.151 28.3571 71.5378 28.8297 71.5378H32.814V58.8073Z" fill="#EEF6FF"/>
<path d="M30.4643 70.6784V59.6667C30.4643 59.194 30.851 58.8073 31.3236 58.8073H28.8297C28.3571 58.8073 27.9704 59.194 27.9704 59.6667V70.6784C27.9704 71.151 28.3571 71.5377 28.8297 71.5377H31.3236C30.851 71.5377 30.4643 71.151 30.4643 70.6784Z" fill="#D9EAFC"/>
<path d="M48.5903 72.8514C48.5903 73.3241 48.2036 73.7108 47.7309 73.7108H33.5016C33.0289 73.7108 32.6422 73.3241 32.6422 72.8514V57.4932C32.6422 57.0205 33.0289 56.6338 33.5016 56.6338H47.7309C48.2036 56.6338 48.5903 57.0205 48.5903 57.4932V72.8514Z" fill="#FE3745"/>
<path d="M36.0527 72.8514V57.4932C36.0527 57.0205 36.4394 56.6338 36.9121 56.6338H33.5016C33.0289 56.6338 32.6422 57.0205 32.6422 57.4932V72.8514C32.6422 73.3241 33.0289 73.7108 33.5016 73.7108H36.9121C36.4394 73.7108 36.0527 73.3241 36.0527 72.8514Z" fill="#B7092B"/>
<path d="M83.278 14.6335C83.278 14.1609 82.8912 13.7742 82.4186 13.7742H58.9661C58.4934 13.7742 58.1067 14.1609 58.1067 14.6335V30.9541C58.1067 31.4268 58.4934 31.8135 58.9661 31.8135H66.0454C66.5181 31.8135 67.1363 32.1232 67.4194 32.5018L70.1776 36.1917C70.4605 36.5703 70.9239 36.5703 71.2068 36.1917L73.9651 32.5018C74.2482 32.1232 74.8664 31.8135 75.339 31.8135H82.4184C82.8911 31.8135 83.2778 31.4268 83.2778 30.9541V14.6335H83.278Z" fill="#52BBEF"/>
<path d="M61.5172 30.9541V14.6335C61.5172 14.1609 61.9039 13.7742 62.3766 13.7742H58.9661C58.4934 13.7742 58.1067 14.1609 58.1067 14.6335V30.9541C58.1067 31.4268 58.4934 31.8135 58.9661 31.8135H62.3766C61.9039 31.8135 61.5172 31.4268 61.5172 30.9541Z" fill="#1E99D6"/>
<path d="M78.0559 20.1506H63.3289C62.6168 20.1506 62.0399 19.5737 62.0399 18.8616C62.0399 18.1497 62.6168 17.5725 63.3289 17.5725H78.0559C78.7679 17.5725 79.3449 18.1497 79.3449 18.8616C79.3449 19.5737 78.7678 20.1506 78.0559 20.1506Z" fill="white"/>
<path d="M78.0559 24.1471H63.3289C62.6168 24.1471 62.0399 23.5701 62.0399 22.858C62.0399 22.146 62.6168 21.569 63.3289 21.569H78.0559C78.7679 21.569 79.3449 22.146 79.3449 22.858C79.3449 23.5701 78.7678 24.1471 78.0559 24.1471Z" fill="white"/>
<path d="M70.7218 28.1434H63.3289C62.6168 28.1434 62.0399 27.5664 62.0399 26.8543C62.0399 26.1422 62.6168 25.5652 63.3289 25.5652H70.7218C71.4338 25.5652 72.0108 26.1422 72.0108 26.8543C72.0108 27.5664 71.4337 28.1434 70.7218 28.1434Z" fill="white"/>
<path d="M46.0642 19.8888C51.3425 19.8888 55.6215 15.6099 55.6215 10.3315C55.6215 5.05317 51.3425 0.774231 46.0642 0.774231C40.7858 0.774231 36.5069 5.05317 36.5069 10.3315C36.5069 15.6099 40.7858 19.8888 46.0642 19.8888Z" fill="#FE3745"/>
<path d="M39.9168 10.3307C39.9168 5.63475 43.3046 1.73267 47.7689 0.928125C47.2151 0.828266 46.646 0.773438 46.0635 0.773438C40.7852 0.773438 36.5064 5.05244 36.5064 10.3307C36.5064 15.609 40.7852 19.8878 46.0635 19.8878C46.646 19.8878 47.2151 19.833 47.7689 19.7331C43.3046 18.9288 39.9168 15.0267 39.9168 10.3307Z" fill="#B7092B"/>
<path d="M46.0466 15.5919C45.8915 15.5919 45.7456 15.531 45.6354 15.4204L41.1208 10.8677C40.5763 10.3186 40.2766 9.58777 40.2766 8.80987C40.2766 8.03231 40.5763 7.30132 41.1208 6.75235C41.6656 6.20252 42.3906 5.90002 43.1615 5.90002C43.9322 5.90002 44.6566 6.20252 45.2021 6.75235L46.0631 7.62049L46.9247 6.75235C47.4693 6.20252 48.194 5.90002 48.965 5.90002C49.7364 5.90002 50.4607 6.20252 51.0058 6.75235C51.5509 7.30166 51.8508 8.03265 51.8508 8.80987C51.8508 9.58709 51.5509 10.3176 51.0055 10.8677L46.4556 15.4217C46.3463 15.5314 46.2009 15.5919 46.0466 15.5919Z" fill="white"/>
<path d="M13.264 63.3231C13.133 63.3231 13.0099 63.2716 12.917 63.1783L9.10615 59.3356C8.64655 58.8721 8.39355 58.2552 8.39355 57.5987C8.39355 56.9425 8.64673 56.3254 9.10615 55.8619C9.56609 55.3978 10.1778 55.1426 10.8285 55.1426C11.4791 55.1426 12.0906 55.3978 12.551 55.8619L13.2777 56.5948L14.0049 55.8619C14.4647 55.3978 15.0762 55.1426 15.7273 55.1426C16.3784 55.1426 16.9897 55.3978 17.4498 55.8619C17.9099 56.3256 18.1631 56.9426 18.1631 57.5987C18.1631 58.2547 17.9099 58.8714 17.4496 59.3356L13.6091 63.1796C13.5171 63.2721 13.3943 63.3231 13.264 63.3231Z" fill="#FE3745"/>
<path d="M11.0272 58.5337C10.5676 58.0701 10.3144 57.4533 10.3144 56.7965C10.3144 56.1803 10.5401 55.6006 10.9476 55.1482C10.9081 55.1462 10.8687 55.1424 10.8287 55.1424C10.178 55.1424 9.5661 55.3976 9.10633 55.8617C8.64674 56.3251 8.39374 56.9421 8.39374 57.5985C8.39374 58.255 8.64691 58.8719 9.10633 59.3355L12.9171 63.1781C13.0101 63.2714 13.1332 63.323 13.2642 63.323C13.3944 63.323 13.5173 63.2719 13.6095 63.1794L14.6259 62.1619L11.0272 58.5337Z" fill="#B7092B"/>
<path d="M31.9983 48.5093V46.1369C31.9983 44.81 33.0776 43.7307 34.4045 43.7307H34.9607C35.0557 43.7307 35.1326 43.6538 35.1326 43.5588C35.1326 43.4637 35.0557 43.3869 34.9607 43.3869C33.6338 43.3869 32.5544 42.3075 32.5544 40.9807V38.6083C32.5544 37.2814 33.6338 36.202 34.9607 36.202C35.0557 36.202 35.1326 36.1252 35.1326 36.0301C35.1326 35.9351 35.0557 35.8583 34.9607 35.8583C33.6338 35.8583 32.5544 34.7789 32.5544 33.452V31.0793C32.5544 29.7524 33.6338 28.673 34.9607 28.673C35.0557 28.673 35.1326 28.5962 35.1326 28.5012C35.1326 28.4061 35.0557 28.3293 34.9607 28.3293H33.8987C32.5718 28.3293 31.4924 27.2499 31.4924 25.923V23.5503C31.4924 22.3716 32.3449 21.3902 33.4654 21.1851V11.9487C33.4654 10.5308 32.3052 9.37061 30.8873 9.37061L26.8772 9.37078C25.4593 9.37078 24.1425 10.5203 23.9509 11.9252L22.3356 23.7773C22.1447 25.1769 21.1339 26.3225 20.0856 26.3309V48.6752H32.0065C32.0029 48.6202 31.9983 48.5655 31.9983 48.5093Z" fill="#FFE2B8"/>
<path d="M30.8874 9.37061L26.8774 9.37078C25.4595 9.37078 24.1427 10.5203 23.9511 11.9252L22.3358 23.7773C22.1448 25.1769 21.134 26.3225 20.0858 26.3309V29.7424C21.9317 29.7423 23.4626 29.7423 23.4843 29.7423C24.5367 29.7423 25.5545 28.5928 25.7461 27.1879L27.3614 15.3357C27.5531 13.9308 28.8698 12.7813 30.2878 12.7813L33.4654 12.7811V11.9487C33.4656 10.5308 32.3054 9.37061 30.8874 9.37061Z" fill="#FFC987"/>
<path d="M34.4046 51.0874C32.9866 51.0874 31.8264 49.9272 31.8264 48.5092V46.1368C31.8264 44.7189 32.9866 43.5587 34.4046 43.5587H48.3866C49.8046 43.5587 50.9647 44.7189 50.9647 46.1368V48.5092C50.9647 49.9272 49.8046 51.0874 48.3866 51.0874H34.4046Z" fill="#FFE2B8"/>
<path d="M10.4844 51.4727C10.0117 51.4727 9.625 51.086 9.625 50.6133V24.2051C9.625 23.7324 10.0117 23.3457 10.4844 23.3457H19.3982C19.8708 23.3457 20.2575 23.7324 20.2575 24.2051V50.6131C20.2575 51.0858 19.8708 51.4725 19.3982 51.4725H10.4844V51.4727Z" fill="#293D7C"/>
<path d="M13.0355 50.6133V24.2051C13.0355 23.7324 13.4222 23.3457 13.8949 23.3457H10.4844C10.0117 23.3457 9.625 23.7324 9.625 24.2051V50.6132C9.625 51.0858 10.0117 51.4725 10.4844 51.4725H13.8949C13.4222 51.4727 13.0355 51.086 13.0355 50.6133Z" fill="#1A2B63"/>
<path d="M14.9411 29.8556C16.2118 29.8556 17.2418 28.8256 17.2418 27.5549C17.2418 26.2843 16.2118 25.2542 14.9411 25.2542C13.6705 25.2542 12.6404 26.2843 12.6404 27.5549C12.6404 28.8256 13.6705 29.8556 14.9411 29.8556Z" fill="#AEC1ED"/>
<path d="M33.8989 28.5013C32.481 28.5013 31.3208 27.3412 31.3208 25.9232V23.5505C31.3208 22.1325 32.481 20.9724 33.8989 20.9724H48.3866C49.8046 20.9724 50.9648 22.1325 50.9648 23.5505V25.9232C50.9648 27.3412 49.8046 28.5013 48.3866 28.5013H33.8989Z" fill="#FFE2B8"/>
<path d="M34.9608 36.0304C33.5428 36.0304 32.3827 34.8702 32.3827 33.4523V31.0795C32.3827 29.6616 33.5428 28.5014 34.9608 28.5014H49.0141C50.4321 28.5014 51.5923 29.6616 51.5923 31.0795V33.4523C51.5923 34.8702 50.4321 36.0304 49.0141 36.0304H34.9608Z" fill="#FFE2B8"/>
<path d="M34.9608 43.5589C33.5428 43.5589 32.3827 42.3987 32.3827 40.9807V38.6083C32.3827 37.1904 33.5428 36.0302 34.9608 36.0302H49.0141C50.4321 36.0302 51.5923 37.1904 51.5923 38.6083V40.9807C51.5923 42.3987 50.4321 43.5589 49.0141 43.5589H34.9608Z" fill="#FFE2B8"/>
<path d="M37.0585 48.4335C35.6405 48.4335 34.4804 47.2733 34.4804 45.8553V43.5589H34.4046C32.9866 43.5589 31.8264 44.7191 31.8264 46.137V48.5094C31.8264 49.9274 32.9866 51.0876 34.4046 51.0876H48.3866C49.8046 51.0876 50.9647 49.9274 50.9647 48.5094V48.4336H37.0585V48.4335Z" fill="#FFC987"/>
<path d="M36.5529 25.8474C35.1349 25.8474 33.9747 24.6873 33.9747 23.2693V20.9725H33.8989C32.481 20.9725 31.3208 22.1327 31.3208 23.5507V25.9234C31.3208 27.3414 32.481 28.5015 33.8989 28.5015H48.3866C49.8046 28.5015 50.9648 27.3414 50.9648 25.9234V25.8476H36.5529V25.8474Z" fill="#FFC987"/>
<path d="M37.6149 33.3763C36.1969 33.3763 35.0368 32.2161 35.0368 30.7982V28.5014H34.961C33.543 28.5014 32.3828 29.6616 32.3828 31.0795V33.4523C32.3828 34.8702 33.543 36.0304 34.961 36.0304H49.0143C50.4323 36.0304 51.5925 34.8702 51.5925 33.4523V33.3765L37.6149 33.3763Z" fill="#FFC987"/>
<path d="M37.6149 40.9049C36.1969 40.9049 35.0368 39.7448 35.0368 38.3268V36.0304H34.961C33.543 36.0304 32.3828 37.1906 32.3828 38.6085V40.9809C32.3828 42.3989 33.543 43.559 34.961 43.559H49.0143C50.4323 43.559 51.5925 42.3989 51.5925 40.9809V40.9051H37.6149V40.9049Z" fill="#FFC987"/>
<path d="M20.966 66.9704H5.59062C5.40259 66.9704 5.24893 67.1247 5.24893 67.3136V77.1793C5.24893 77.3681 5.40259 77.5225 5.59062 77.5225H20.966C21.1541 77.5225 21.3077 77.3681 21.3077 77.1793V67.3136C21.3079 67.1247 21.1541 66.9704 20.966 66.9704Z" fill="#FFAF10"/>
<path d="M8.65937 77.1792V69.665L5.33135 67.0929C5.34682 67.0745 5.36401 67.058 5.38291 67.0432C5.30196 67.1061 5.24902 67.2034 5.24902 67.3134V77.179C5.24902 77.3679 5.40268 77.5223 5.59071 77.5223H9.00105C8.81302 77.5224 8.65937 77.3681 8.65937 77.1792Z" fill="#EF9614"/>
<path d="M20.9661 66.9704H5.59063C5.48664 66.9704 5.394 67.0187 5.33127 67.0931L13.0076 73.0259C13.1566 73.1411 13.4003 73.1411 13.5491 73.0259L21.2252 67.0931C21.1627 67.0187 21.0702 66.9704 20.9661 66.9704Z" fill="#FFD00D"/>
<path d="M87.6583 39.9012H72.2829C72.0948 39.9012 71.9412 40.0556 71.9412 40.2445V50.1101C71.9412 50.299 72.095 50.4534 72.2829 50.4534H87.6583C87.8463 50.4534 88 50.299 88 50.1101V40.2445C88 40.0558 87.8462 39.9012 87.6583 39.9012Z" fill="#FFAF10"/>
<path d="M75.3515 50.1102V42.596L72.0235 40.0239C72.039 40.0055 72.0562 39.989 72.0751 39.9742C71.9941 40.0371 71.9412 40.1344 71.9412 40.2444V50.1101C71.9412 50.2989 72.095 50.4533 72.2829 50.4533H75.6934C75.5053 50.4535 75.3515 50.2989 75.3515 50.1102Z" fill="#EF9614"/>
<path d="M87.6583 39.9012H72.2829C72.1789 39.9012 72.0862 39.9495 72.0235 40.024L79.6998 45.9568C79.8488 46.0719 80.0925 46.0719 80.2414 45.9568L87.9175 40.024C87.8547 39.9497 87.7623 39.9012 87.6583 39.9012Z" fill="#FFD00D"/>
</svg>
